<mxfile host="app.diagrams.net" modified="2023-06-19T04:03:49.764Z" agent="Mozilla/5.0 (Windows NT 10.0; Win64; x64) AppleWebKit/537.36 (KHTML, like Gecko) Chrome/113.0.0.0 Safari/537.36 Edg/113.0.1774.57" version="21.5.0" etag="vvhVCRIi-sniIMaZFf5u" type="github">
  <diagram name="Page-1" id="Prrw6O5wgUlNNSRRy9Ft">
    <mxGraphModel>
      <root>
        <mxCell id="0" />
        <mxCell id="1" parent="0" />
      </root>
    </mxGraphModel>
  </diagram>
</mxfile>
